<?xml version="1.0" encoding="UTF-8" standalone="no"?>
<!-- Created with Inkscape (http://www.inkscape.org/) -->

<svg
   version="1.1"
   id="svg1"
   width="214.832"
   height="285.74295"
   viewBox="0 0 214.832 285.74295"
   sodipodi:docname="echo_bot.svg"
   inkscape:version="1.3.2 (091e20ef0f, 2023-11-25, custom)"
   xmlns:inkscape="http://www.inkscape.org/namespaces/inkscape"
   xmlns:sodipodi="http://sodipodi.sourceforge.net/DTD/sodipodi-0.dtd"
   xmlns:xlink="http://www.w3.org/1999/xlink"
   xmlns="http://www.w3.org/2000/svg"
   xmlns:svg="http://www.w3.org/2000/svg">
  <defs
     id="defs1">
    <linearGradient
       id="linearGradient1"
       inkscape:collect="always">
      <stop
         style="stop-color:#87baff;stop-opacity:1;"
         offset="0"
         id="stop1" />
      <stop
         style="stop-color:#0d002e;stop-opacity:0.31687897;"
         offset="0.5"
         id="stop3" />
      <stop
         style="stop-color:#f6f4ff;stop-opacity:1;"
         offset="1"
         id="stop2" />
    </linearGradient>
    <linearGradient
       inkscape:collect="always"
       xlink:href="#linearGradient1"
       id="linearGradient2"
       x1="86.05719"
       y1="211.63284"
       x2="300.88919"
       y2="211.63284"
       gradientUnits="userSpaceOnUse" />
  </defs>
  <sodipodi:namedview
     id="namedview1"
     pagecolor="#505050"
     bordercolor="#eeeeee"
     borderopacity="1"
     inkscape:showpageshadow="0"
     inkscape:pageopacity="0"
     inkscape:pagecheckerboard="0"
     inkscape:deskcolor="#505050"
     inkscape:zoom="1.5672024"
     inkscape:cx="124.42554"
     inkscape:cy="186.00023"
     inkscape:window-width="3440"
     inkscape:window-height="1243"
     inkscape:window-x="0"
     inkscape:window-y="126"
     inkscape:window-maximized="0"
     inkscape:current-layer="g1" />
  <g
     inkscape:groupmode="layer"
     inkscape:label="Image"
     id="g1"
     transform="translate(-86.05719,-68.761368)">
    <path
       style="fill:url(#linearGradient2);fill-opacity:1"
       d="m 132.93312,351.58123 c 0,-3.95036 4.68695,-8.48006 10.91482,-10.54863 l 4.92513,-1.63586 -2.08911,-4.69622 c -2.70198,-6.07388 -2.88736,-17.55749 -0.40144,-24.86673 0.9672,-2.84379 3.59223,-7.25371 5.83341,-9.79982 l 4.07488,-4.62931 -2.74137,-6.45017 c -1.50774,-3.5476 -3.2687,-6.45018 -3.91323,-6.45018 -0.64453,0 -1.92338,1.27219 -2.84188,2.82709 -0.9185,1.5549 -3.87167,5.00874 -6.56261,7.6752 -4.58273,4.54107 -4.82366,5.03079 -3.80399,7.73221 0.90364,2.39401 0.73045,3.53798 -1.01921,6.73223 -1.3262,2.42115 -1.7923,4.34601 -1.25693,5.19071 2.79018,4.40234 -0.84113,10.13172 -5.00809,7.90164 -1.53057,-0.81914 -1.99123,-0.62271 -2.42442,1.03381 -0.42738,1.6343 -1.20281,1.98102 -3.86038,1.72611 -2.95838,-0.28378 -3.65683,-0.98151 -6.32558,-6.319 -3.12176,-6.24352 -3.96021,-13.97875 -1.80828,-16.68259 0.57668,-0.72458 1.28371,-5.14241 1.5712,-9.81741 0.55846,-9.08153 3.84191,-19.52974 7.95083,-25.30018 1.55058,-2.17759 2.44304,-5.25492 2.86774,-9.88833 0.47833,-5.21846 1.2406,-7.54498 3.39937,-10.37529 5.88935,-7.72133 16.89538,-8.73057 18.96867,-1.73939 0.56573,1.90767 -0.0909,2.548 -4.98856,4.86498 -4.46538,2.11246 -6.65169,4.04585 -10.49737,9.28301 -5.39095,7.34155 -11.49707,18.99552 -12.43771,23.73829 -0.58801,2.96476 -0.4952,3.06602 2.41833,2.6384 2.02368,-0.29701 4.73915,0.44911 8.17719,2.24681 4.53566,2.37163 5.32258,2.51628 6.62173,1.21713 2.13864,-2.13863 0.47956,-4.44473 -5.87843,-8.17094 -5.90832,-3.46267 -7.20878,-6.37182 -4.29008,-9.59696 2.31473,-2.55774 5.039,-2.40015 10.27744,0.59452 2.39364,1.36837 4.98114,2.48795 5.75,2.48795 2.45907,0 1.60872,-4.7607 -1.19733,-6.70332 -7.408,-5.1285 -8.29777,-8.52601 -3.32801,-12.70779 3.77821,-3.17915 8.06358,-3.33723 12.1223,-0.44717 2.48071,1.76642 3.16384,1.89784 3.89843,0.75 0.61311,-0.95801 0.26925,-1.81928 -1.10339,-2.76369 -1.5124,-1.04057 -1.99407,-2.50196 -1.99407,-6.05 0,-5.44432 1.23206,-7.0569 5.45,-7.13322 1.99083,-0.036 -0.24904,-1.03599 -6.45,-2.87952 -19.85755,-5.9036 -30.63564,-11.19917 -34.969,-17.1812 -1.54582,-2.13393 -4.32267,-6.80416 -6.17079,-10.37828 -2.64931,-5.12359 -3.84465,-6.4992 -5.65004,-6.50211 -3.60829,-0.006 -9.732331,-3.60065 -13.105591,-7.69299 -4.57841,-5.55441 -6.44195,-12.15197 -5.88477,-20.83404 0.58559,-9.12475 3.97987,-15.46452 10.34841,-19.32857 4.064391,-2.46603 4.578911,-3.28465 7.483361,-11.90641 2.08001,-6.17445 4.11539,-10.25481 6.11057,-12.25 1.64544,-1.64543 3.3447,-2.99169 3.77615,-2.99169 0.43146,0 3.36543,-3.36969 6.51996,-7.4882 15.53077,-20.276788 35.56451,-31.863064 62.29174,-36.025682 l 4.25,-0.661914 v -4.412102 c 0,-5.828995 2.81634,-8.893733 7.35417,-8.002798 4.11794,0.808498 5.64583,3.025958 5.64583,8.193928 0,4.195354 0.0258,4.22499 4.25,4.882886 27.33833,4.257794 48.74607,16.971752 63.7456,37.858222 1.87186,2.60652 4.85687,5.63743 6.63336,6.73536 3.7612,2.32455 7.72147,9.65863 9.49513,17.58417 1.06249,4.74772 1.69905,5.71673 4.80041,7.30751 8.03601,4.12192 12.03158,11.76949 12.03158,23.02862 0,8.35526 -2.13124,14.44859 -6.76503,19.34158 -3.2606,3.44299 -9.26637,6.65842 -12.43658,6.65842 -1.85395,0 -2.95532,1.2667 -5.43426,6.25 -5.93181,11.92447 -8.44383,14.45529 -19.64781,19.79495 -5.59482,2.6664 -14.8974,6.19477 -20.6724,7.8408 -6.4711,1.84445 -9.3297,3.0161 -7.45,3.05352 4.21937,0.084 5.45,1.69597 5.45,7.13876 0,3.54804 -0.48167,5.00943 -1.99407,6.05 -1.37264,0.94441 -1.7165,1.80568 -1.10339,2.76369 0.73459,1.14784 1.41772,1.01642 3.89843,-0.75 7.0728,-5.03628 17.13141,0.19453 14.75741,7.67434 -0.34222,1.07822 -2.40785,3.14209 -4.59029,4.58636 -2.85567,1.88979 -3.96809,3.32283 -3.96809,5.11177 0,3.15648 1.62353,3.156 7.14793,-0.002 5.23844,-2.99467 7.96271,-3.15226 10.27744,-0.59452 2.9187,3.22514 1.61824,6.13429 -4.29008,9.59696 -6.27964,3.68029 -7.59038,5.48088 -5.78606,7.94843 1.20804,1.65209 1.6011,1.59594 6.61546,-0.94503 3.40712,-1.72651 6.37587,-2.54814 8.226,-2.27659 2.75928,0.40497 2.86625,0.28044 2.28342,-2.65821 -0.9628,-4.8545 -7.17006,-16.61135 -12.59457,-23.85472 -3.84713,-5.1371 -6.19242,-7.20422 -10.46916,-9.22744 -4.78517,-2.26375 -5.42404,-2.89678 -4.84849,-4.80412 1.08213,-3.58611 2.26322,-4.19951 7.97937,-4.14411 4.57161,0.0443 5.90946,0.50494 8.40194,2.89289 4.09353,3.92185 6.22552,8.85735 6.21221,14.38115 -0.008,3.46713 0.74328,5.85551 2.91229,9.25399 4.33128,6.78641 7.01567,15.41564 7.59639,24.41927 0.2838,4.4 1.19437,9.51051 2.02349,11.35669 1.94667,4.33455 1.09456,10.06578 -2.47451,16.64331 -2.18018,4.01791 -3.29264,5.06595 -5.66376,5.33579 -1.90881,0.21722 -3.38353,-0.25617 -4.17656,-1.3407 -0.77068,-1.05397 -1.94403,-1.44855 -3.15994,-1.06263 -1.17928,0.37429 -2.86015,-0.13606 -4.30709,-1.30772 -2.30282,-1.86471 -2.32523,-2.02181 -0.75734,-5.30972 1.51866,-3.18465 1.50267,-3.52774 -0.26634,-5.71237 -2.02082,-2.4956 -2.55129,-8.57099 -0.84069,-9.6282 0.59421,-0.36724 -1.76742,-3.62103 -5.5,-7.57777 -3.59774,-3.81393 -6.54135,-7.37587 -6.54135,-7.91556 0,-0.5397 -0.62437,-0.98126 -1.38748,-0.98126 -0.76312,0 -2.6211,2.90258 -4.12884,6.45018 l -2.74137,6.45017 4.07488,4.62931 c 2.24118,2.54611 4.8812,6.95603 5.8667,9.79982 2.49923,7.21181 2.29542,18.69504 -0.44136,24.86673 l -2.08248,4.69622 4.92513,1.63586 c 6.22787,2.06857 10.91482,6.59827 10.91482,10.54863 v 2.92308 h -22 c -20.66667,0 -22.12121,-0.12121 -24,-2 -1.1,-1.1 -2,-3.04656 -2,-4.32569 0,-2.56861 3.30152,-6.08157 6.67561,-7.10315 l 2.17561,-0.65871 -2.50386,-5.66167 c -1.78557,-4.03749 -2.66822,-8.19863 -3.0768,-14.50519 -0.4627,-7.14181 -0.85037,-8.73707 -2.01465,-8.2903 -0.79294,0.30428 -2.4963,0.81792 -3.78525,1.14143 -2.10443,0.52818 -2.22615,0.84581 -1.19306,3.11321 1.00122,2.19742 0.84886,2.76925 -1.17434,4.40754 -3.26101,2.6406 -14.07524,2.67596 -16.44827,0.0538 -1.90642,-2.10657 -2.12394,-4.30231 -0.57923,-5.84702 0.76769,-0.76769 0.15219,-1.39773 -2.14922,-2.2 -1.77374,-0.61834 -3.31623,-1.12425 -3.42774,-1.12425 -0.11152,0 -0.45916,3.95755 -0.77253,8.79456 -0.40541,6.25753 -1.29208,10.42781 -3.07363,14.45622 l -2.50386,5.66167 2.17561,0.65871 c 3.37409,1.02158 6.67561,4.53454 6.67561,7.10315 0,1.27913 -0.9,3.22569 -2,4.32569 -1.87879,1.87879 -3.33333,2 -24,2 h -22 z m 36.97634,-17.0623 c 0.7233,-0.44702 1.03864,-1.53319 0.70076,-2.4137 -0.50346,-1.31198 -2.32391,-1.60092 -10.0867,-1.60092 -9.55382,0 -11.81518,0.8193 -9.60656,3.48052 1.28721,1.551 16.64818,1.98297 18.9925,0.5341 z m 65.94971,-0.42551 c 2.30262,-2.77449 0.14267,-3.58911 -9.51645,-3.58911 -7.76279,0 -9.58324,0.28894 -10.0867,1.60092 -0.92643,2.41424 0.90181,3.0086 10.02795,3.26013 6.39697,0.1763 8.61813,-0.11875 9.5752,-1.27194 z M 172.49366,323.0837 c 1.06482,-0.77862 1.51419,-1.94227 1.13332,-2.93478 -0.53737,-1.40038 -2.42248,-1.64461 -12.69386,-1.64461 -10.27138,0 -12.15649,0.24423 -12.69386,1.64461 -1.17478,3.06141 2.32108,4.22496 12.69386,4.22496 6.4212,0 10.40399,-0.44449 11.56054,-1.29018 z m 64.88512,0.084 c 1.15504,-0.84458 1.63608,-2.00799 1.2482,-3.01878 -0.53737,-1.40038 -2.42248,-1.64461 -12.69386,-1.64461 -10.27138,0 -12.15649,0.24423 -12.69386,1.64461 -1.12236,2.92482 2.21387,4.05621 12.46892,4.22848 6.94667,0.1167 10.33728,-0.23475 11.6706,-1.2097 z M 170.18312,311.885 c 2.6733,-0.78742 2.08807,-3.15451 -1.20034,-4.85501 -3.51793,-1.81919 -14.13793,-2.03741 -15.84966,-0.32568 -1.5674,1.5674 -1.53851,4.50932 0.05,5.09128 1.75554,0.64315 14.88558,0.71221 17,0.0894 z m 62.91518,0.0669 c 2.27319,-0.72148 2.4583,-4.99434 0.25303,-5.84058 -3.02749,-1.16176 -12.53693,-0.59696 -15.46787,0.91869 -3.02998,1.56686 -3.90914,3.98805 -1.71382,4.71983 2.02924,0.67641 14.94827,0.83061 16.92866,0.20206 z m -29.3257,-15.99462 c 0.63829,-1.4009 1.16052,-2.74063 1.16052,-2.97719 0,-0.23657 -5.175,-0.39926 -11.5,-0.36154 -6.325,0.0377 -11.5,0.23127 -11.5,0.43012 0,0.19884 0.52223,1.50771 1.16052,2.90859 1.1209,2.46012 1.47378,2.54705 10.33948,2.54705 8.8657,0 9.21858,-0.0869 10.33948,-2.54705 z m -71.83948,-1.92729 c 0,-1.58262 -3.78804,-3.83451 -8.25,-4.90439 -2.52893,-0.60639 -2.75,-0.42155 -2.75,2.29929 0,3.12009 -0.2978,2.99417 9.25,3.91132 0.9625,0.0924 1.75,-0.49534 1.75,-1.30622 z m 132.25,0.48533 c 1.2778,-0.008 1.75,-0.82563 1.75,-3.03006 0,-2.7867 -0.21165,-2.96831 -2.75,-2.35966 -4.58159,1.09857 -8.25,3.33751 -8.25,5.03523 0,1.29838 0.71671,1.4867 3.75,0.98533 2.0625,-0.34091 4.5375,-0.62479 5.5,-0.63084 z m -46.70349,-12.81467 c 2.22559,-1.11615 5.67415,-2.33471 7.66347,-2.70791 1.98933,-0.3732 4.61048,-1.60415 5.82479,-2.73545 1.87765,-1.74929 2.12333,-2.77024 1.64287,-6.82699 -0.58062,-4.90245 -4.43403,-13.64899 -6.92347,-15.71505 -1.02022,-0.84671 -3.01513,-0.89655 -7.32801,-0.18308 -12.1072,2.00286 -31.38132,2.27207 -43.87717,0.61286 -10.4946,-1.39349 -12.14803,-1.40857 -13.5678,-0.1237 -2.7015,2.44483 -6.02741,10.07758 -6.63812,15.2341 -0.72168,6.09348 0.37559,7.32664 9.10371,10.23117 3.56239,1.18549 8.13565,3.28098 10.16282,4.65665 2.8917,1.96236 3.86109,2.21682 4.49967,1.18114 0.58763,-0.95307 4.38216,-1.41055 13.6484,-1.6455 11.62909,-0.29485 13.06496,-0.13757 15.28841,1.67466 2.37274,1.93391 2.52008,1.94014 4.45392,0.18827 1.1,-0.99649 3.82093,-2.72502 6.04651,-3.84117 z m 2.64097,-53.66029 c 4.77811,-0.86997 12.8339,-3.03398 17.90175,-4.80891 8.95588,-3.13664 9.29403,-3.36937 12.05842,-8.29904 l 2.84415,-5.0719 -5.06902,0.4041 c -19.22219,1.53238 -37.15677,-13.34833 -38.66014,-32.07715 -2.03254,-25.32114 24.52806,-44.61332 47.61448,-34.58457 5.32913,2.31497 5.04436,2.31715 4.42957,-0.0338 -0.86336,-3.30146 -3.41079,-4.76288 -15.63963,-8.97223 -19.34051,-6.65731 -28.62195,-8.09255 -52.33282,-8.09255 -23.53051,0 -32.6248,1.42325 -52.24353,8.17606 -11.99273,4.12792 -14.53643,5.59636 -15.3974,8.8887 -0.61928,2.36816 -0.95695,2.38418 4.92957,-0.2339 6.74384,-2.99938 17.76975,-2.98329 25.5259,0.0373 7.14472,2.78242 15.22941,10.5798 18.74807,18.08181 2.16473,4.61534 2.60315,6.98164 2.60315,14.05008 0,7.214 -0.40918,9.33313 -2.70453,14.00672 -3.67692,7.48664 -10.0054,13.66287 -17.79547,17.36735 -5.60352,2.66469 -7.62768,3.09341 -14.67635,3.10847 l -8.17634,0.0175 2.54635,4.67848 c 2.01253,3.69769 3.56418,5.11634 7.40149,6.76711 6.7956,2.92338 22.21561,6.9048 31.00373,8.0051 10.14163,1.26977 34.55142,0.50392 45.0886,-1.41464 z m -32.23841,-13.37621 c -2.25148,-1.82314 -2.20091,-1.83953 5.46698,-1.77218 7.56872,0.0665 7.69119,0.10708 5.55093,1.84016 -2.83758,2.29773 -8.13676,2.26504 -11.01791,-0.068 z m -86.76592,-23.84356 c -6.208571,-7.85173 -7.497831,-15.47678 -4.247991,-25.12378 1.13566,-3.37118 2.06484,-6.6487 2.06484,-7.2834 0,-1.99704 -2.98016,1.1367 -5.2533,5.524 -2.59862,5.01552 -2.80302,15.28499 -0.41227,20.71347 1.4964,3.39775 9.485141,11.3672 10.438781,10.41356 0.23516,-0.23516 -0.93037,-2.1449 -2.59006,-4.24385 z m 190.85158,-3.7295 c 5.10065,-8.87891 4.78547,-19.11699 -0.81636,-26.51844 -3.37415,-4.45812 -3.81688,-2.78189 -1.26554,4.79163 1.12594,3.34232 2.04717,7.919 2.04717,10.17041 0,4.53289 -3.86848,13.63563 -6.99878,16.46851 -3.04784,2.75827 -2.38739,3.83878 1.1049,1.80765 1.70837,-0.9936 4.37624,-4.01749 5.92861,-6.71976 z m -130.54841,-9.75468 c 6.7482,-5.30813 6.62556,-14.64542 -0.25375,-19.32003 -4.31068,-2.92919 -7.1148,-3.13632 -11.87549,-0.87723 -5.89067,2.79531 -8.06696,10.15794 -4.84451,16.38947 3.04334,5.88518 11.82757,7.85578 16.97375,3.80779 z m 76.50264,0.67361 c 4.08501,-2.11244 6.01163,-5.31259 6.0073,-9.97822 -0.005,-5.71398 -3.01043,-10.15185 -7.85784,-11.60417 -4.99996,-1.49802 -8.61727,-0.59831 -12.26655,3.05097 -2.42283,2.42283 -2.87187,3.68131 -2.87187,8.04879 0,4.55414 0.40901,5.58593 3.4,8.57692 3.84951,3.84951 8.55419,4.50929 13.58896,1.90571 z M 164.115,110.8402 c 27.15237,-4.20583 64.99683,-1.16443 90.7014,7.28931 2.41081,0.79286 4.5641,1.26075 4.7851,1.03975 1.03834,-1.03834 -15.29709,-14.74759 -21.38397,-17.94615 -8.28633,-4.354352 -22.14549,-8.507783 -31.16363,-9.339389 -5.9091,-0.544908 -6.82555,-0.38313 -8.52577,1.505027 -2.47362,2.747056 -7.65981,2.806425 -10.09501,0.115562 -2.06126,-2.277663 -5.32272,-2.497705 -14.06634,-0.94902 -15.40343,2.728282 -30.42503,9.74826 -40.68366,19.0125 -3.7125,3.35264 -6.75,6.41477 -6.75,6.80473 0,0.38997 5.81934,-0.75081 12.93188,-2.53507 7.11253,-1.78426 18.02503,-4.03302 24.25,-4.99725 z"
       id="path1"
       inkscape:export-filename="echo_bot.svg"
       inkscape:export-xdpi="96"
       inkscape:export-ydpi="96" />
  </g>
</svg>
