<svg xmlns="http://www.w3.org/2000/svg" version="1.1" xmlns:xlink="http://www.w3.org/1999/xlink" xmlns:svgjs="http://svgjs.dev/svgjs" width="1500" height="159" viewBox="0 0 1500 159"><g transform="matrix(1,0,0,1,-0.9090909090909918,0.6542389803504989)"><svg viewBox="0 0 396 42" data-background-color="#444444" preserveAspectRatio="xMidYMid meet" height="159" width="1500" xmlns="http://www.w3.org/2000/svg" xmlns:xlink="http://www.w3.org/1999/xlink"><g id="tight-bounds" transform="matrix(1,0,0,1,0.2400000000000091,-0.17281784386617005)"><svg viewBox="0 0 395.52 42.34563568773234" height="42.34563568773234" width="395.52"><g><svg viewBox="0 0 395.52 42.34563568773234" height="42.34563568773234" width="395.52"><g><svg viewBox="0 0 395.52 42.34563568773234" height="42.34563568773234" width="395.52"><g id="textblocktransform"><svg viewBox="0 0 395.52 42.34563568773234" height="42.34563568773234" width="395.52" id="textblock"><g><svg viewBox="0 0 395.52 42.34563568773234" height="42.34563568773234" width="395.52"><g transform="matrix(1,0,0,1,0,0)"><svg width="395.52" viewBox="5 -28.75 281.58 28.8" height="42.34563568773234" data-palette-color="#ffffff"><g class="wordmark-text-0" data-fill-palette-color="primary" id="text-0"><path d="M5 0L5-28.75 10.7-28.75 21-19.05 21-11.5 11.3-20.85 11.3 0 5 0ZM23.25-17.2L33.15-8.1 33.15-28.75 39.45-28.75 39.45 0 33.55 0 23.25-9.9 23.25-17.2ZM78.75-21.85L78.75 0 72.5 0 72.5-2.25 65 0 65-5.25 72.5-5.25 72.5-21.85 78.75-21.85ZM48.95-21.85L48.95-3.45 54.6 0 62.7 0 62.7-5.25 55.25-5.25 55.25-21.85 48.95-21.85ZM88.75 0.05L88.75-28.75 95.15-28.75 95.15 0.05 88.75 0.05ZM105.14 0.05L105.14-28.75 111.54-28.75 111.54 0.05 105.14 0.05ZM121.54 0L121.54-28.75 137.54-28.75 137.54-23.1 127.84-23.1 127.84-17.2 137.54-17.2 137.54-11.5 127.84-11.5 127.84-5.85 137.54-5.85 137.54 0 121.54 0ZM150.34 0L155.99-3.4 155.99-12.15 151.29-14.35 155.99-16.6 155.99-25.3 150.34-28.75 139.99-28.75 139.99-23.1 149.69-23.1 149.69-17.2 139.99-17.2 139.99-11.5 149.69-11.5 149.69-5.85 139.99-5.85 139.99 0 150.34 0ZM164.99 0.05L164.99-28.75 171.39-28.75 171.39 0.05 164.99 0.05ZM180.39-3.5L180.39-18.55 186.24-22 194.14-22 194.14-17.3 186.64-17.3 186.64-5.4 194.14-5.4 194.14-0.05 186.24-0.05 180.39-3.5ZM209.74-3.5L209.74-18.55 203.89-22 195.94-22 195.94-17.3 203.49-17.3 203.49-5.4 195.94-5.4 195.94-0.05 203.89-0.05 209.74-3.5ZM217.73-3.45L217.73-18.6 223.43-22.05 231.63-22.05 231.63-17.35 224.08-17.35 224.08-5.3 231.43-5.3 231.43 0 223.43 0 217.73-3.45ZM241.43-15.1L247.73-15.1 247.73-18.6 242.03-22.05 233.88-22.05 233.88-17.35 241.43-17.35 241.43-15.1ZM241.43-6.95L247.73-6.95 247.73-3.45 242.03 0 233.88 0 233.88-5.3 241.43-5.3 241.43-6.95ZM256.73 0.05L256.73-28.75 263.03-28.75 263.03-13.1 265.83-13.1 265.83-9.45 263.03-9.45 263.03 0.05 256.73 0.05ZM286.58-3.4L274.03-11.5 285.48-19.05 281.33-22 268.33-13.1 268.33-9.45 280.93 0.05 286.58-3.4Z" fill="#ffffff" data-fill-palette-color="primary"></path></g></svg></g></svg></g></svg></g></svg></g></svg></g><defs></defs></svg><rect width="395.52" height="42.34563568773234" fill="none" stroke="none" visibility="hidden"></rect></g></svg></g></svg>